<?xml version="1.0" encoding="utf-8"?>
<!-- Generator: Adobe Illustrator 24.2.3, SVG Export Plug-In . SVG Version: 6.00 Build 0)  -->
<svg version="1.1" id="レイヤー_1" xmlns="http://www.w3.org/2000/svg" xmlns:xlink="http://www.w3.org/1999/xlink" x="0px"
	 y="0px" viewBox="0 0 403 71" style="enable-background:new 0 0 403 71;" xml:space="preserve">
<g>
	<path d="M177.59,15.23c3.81,0,7.59,0,11.39,0c2.79,10.01,5.58,20.03,8.37,30.04c0.02,0,0.05,0,0.07,0.01
		c2.79-10.01,5.58-20.01,8.37-30.04c3.81,0,7.61,0,11.45,0c0,13.43,0,26.85,0,40.3c-2.5,0-4.99,0-7.52,0c0-9.74,0-19.48,0-29.22
		c-0.03-0.01-0.06-0.01-0.09-0.02c-0.09,0.3-0.18,0.6-0.26,0.91c-2.57,9.3-5.15,18.6-7.71,27.9c-0.09,0.34-0.22,0.47-0.6,0.46
		c-2.45-0.02-4.91-0.02-7.36,0c-0.29,0-0.42-0.07-0.5-0.37c-2.62-9.5-5.25-18.99-7.88-28.49c-0.03-0.11-0.07-0.23-0.16-0.34
		c0,9.71,0,19.41,0,29.16c-2.54,0-5.04,0-7.57,0C177.59,42.12,177.59,28.69,177.59,15.23z"/>
	<path d="M151.71,43.71c0-9.49,0-18.97,0-28.47c2.58,0,5.13,0,7.71,0c0,13.42,0,26.84,0,40.33c-0.13,0-0.27,0-0.42,0
		c-2.78,0-5.56-0.01-8.35,0.01c-0.35,0-0.53-0.11-0.7-0.41c-5.28-9.25-10.58-18.49-15.87-27.73c-0.07-0.13-0.15-0.25-0.3-0.37
		c0,9.49,0,18.97,0,28.48c-2.59,0-5.12,0-7.68,0c0-13.43,0-26.86,0-40.31c0.14-0.01,0.28-0.02,0.41-0.02c2.82,0,5.65,0,8.47-0.01
		c0.29,0,0.43,0.1,0.57,0.34c5.29,9.29,10.59,18.58,15.89,27.86c0.06,0.11,0.12,0.21,0.19,0.31
		C151.66,43.72,151.69,43.72,151.71,43.71z"/>
	<path d="M267.26,39.96c0,5.2,0,10.38,0,15.58c-2.58,0-5.12,0-7.68,0c0-13.43,0-26.85,0-40.32c0.15,0,0.3,0,0.44,0
		c6.22,0,12.44-0.03,18.66,0.01c3.19,0.02,6.21,0.75,8.84,2.69c2.44,1.8,3.78,4.24,4.18,7.22c0.24,1.81,0.22,3.62-0.27,5.4
		c-0.68,2.44-2.24,4.19-4.4,5.45c-0.12,0.07-0.24,0.13-0.36,0.2c-0.12,0.06-0.23,0.13-0.39,0.21c0.1,0.07,0.17,0.13,0.24,0.18
		c2.39,1.45,3.66,3.64,3.94,6.36c0.18,1.84,0.14,3.7,0.17,5.55c0.02,1.69-0.07,3.38,0.35,5.04c0.17,0.67,0.35,1.34,0.53,2.03
		c-0.12,0-0.24,0-0.36,0c-2.33,0-4.66-0.01-7,0.01c-0.34,0-0.47-0.12-0.57-0.42c-0.42-1.21-0.64-2.45-0.64-3.73
		c0-2.14,0.01-4.28-0.01-6.42c-0.01-0.6-0.06-1.2-0.18-1.79c-0.38-1.79-1.46-2.81-3.29-3.12c-0.66-0.11-1.33-0.16-1.99-0.16
		c-3.29-0.02-6.57-0.01-9.86-0.01C267.5,39.93,267.4,39.95,267.26,39.96z M267.26,33.04c0.13,0.01,0.22,0.02,0.31,0.02
		c3.48,0,6.95,0.01,10.43-0.01c1.01-0.01,2.01-0.15,2.95-0.57c1.64-0.73,2.85-1.86,3.09-3.71c0.12-0.88,0.05-1.79-0.03-2.68
		c-0.09-0.94-0.59-1.71-1.3-2.34c-1.22-1.07-2.7-1.38-4.25-1.39c-3.59-0.02-7.17-0.02-10.76-0.02c-0.14,0-0.29,0-0.44,0
		C267.26,25.93,267.26,29.46,267.26,33.04z"/>
	<path d="M71.57,55.55c-9.96,0-19.88,0-29.84,0c0-13.44,0-26.86,0-40.31c9.82,0,19.62,0,29.44,0c0,2.37,0,4.72,0,7.09
		c-7.25,0-14.48,0-21.74,0c0,2.89,0,5.76,0,8.67c6.17,0,12.35,0,18.54,0c0,2.39,0,4.74,0,7.13c-6.19,0-12.36,0-18.56,0
		c0,3.44,0,6.85,0,10.29c7.38,0,14.75,0,22.15,0C71.57,50.82,71.57,53.17,71.57,55.55z"/>
	<path d="M330.87,15.23c2.58,0,5.13,0,7.72,0c0,5.39,0,10.77,0,16.17c5.74,0,11.44,0,17.18,0c0-5.37,0-10.75,0-16.15
		c2.59,0,5.13,0,7.69,0c0,13.42,0,26.84,0,40.29c-2.53,0-5.07,0-7.66,0c0-5.64,0-11.29,0-16.97c-5.74,0-11.44,0-17.18,0
		c0,5.64,0,11.29,0,16.97c-2.6,0-5.16,0-7.75,0C330.87,42.12,330.87,28.7,330.87,15.23z"/>
	<path d="M38.27,55.57c-0.61,0-1.13,0-1.64,0c-2.66,0-5.32-0.01-7.98,0.01c-0.29,0-0.46-0.08-0.63-0.32
		C24,49.49,19.98,43.74,15.96,37.98c-0.05-0.08-0.11-0.15-0.15-0.21c-0.45,0.43-0.92,0.84-1.35,1.28c-0.79,0.81-1.57,1.63-2.36,2.44
		c-0.2,0.21-0.29,0.42-0.29,0.72c0.01,4.27,0.01,8.54,0.01,12.81c0,0.16,0,0.32,0,0.52c-2.59,0-5.15,0-7.74,0
		c0-13.43,0-26.84,0-40.29c2.57,0,5.12,0,7.72,0c0,5.36,0,10.72,0,16.09c0.04,0.03,0.07,0.05,0.11,0.08
		c0.13-0.16,0.26-0.32,0.4-0.47c4.08-4.38,8.16-8.76,12.23-13.13c0.73-0.79,1.46-1.58,2.21-2.36c0.11-0.11,0.29-0.22,0.44-0.22
		c3.38-0.01,6.76-0.01,10.15-0.01c0.04,0,0.07,0.01,0.19,0.04c-5.46,5.62-10.89,11.2-16.35,16.82
		C26.86,39.89,32.54,47.69,38.27,55.57z"/>
	<path d="M222.88,15.24c2.59,0,5.12,0,7.69,0c0,0.18,0,0.34,0,0.5c0,8.07,0,16.15,0,24.22c0,1.46,0.16,2.91,0.65,4.3
		c0.96,2.75,2.97,4.17,5.81,4.51c1.3,0.15,2.59,0.11,3.86-0.2c2.8-0.68,4.37-2.55,4.96-5.28c0.25-1.16,0.37-2.37,0.37-3.56
		c0.03-7.98,0.02-15.96,0.02-23.93c0-0.18,0-0.35,0-0.55c2.59,0,5.15,0,7.75,0c0,0.16,0,0.3,0,0.45c0,7.98,0,15.96,0,23.93
		c0,2.99-0.43,5.89-1.67,8.64c-1.88,4.17-5.14,6.66-9.56,7.6c-3.44,0.73-6.89,0.69-10.26-0.43c-4.74-1.58-7.6-4.94-8.88-9.72
		c-0.5-1.87-0.73-3.77-0.74-5.7c-0.01-8.14,0-16.28,0-24.43C222.88,15.48,222.88,15.37,222.88,15.24z"/>
	<path d="M296.91,15.22c0.17,0,0.3,0,0.44,0c5.7,0,11.4-0.03,17.1,0.01c3.16,0.03,6.09,0.86,8.57,2.91
		c2.01,1.66,3.19,3.84,3.75,6.36c0.69,3.07,0.62,6.12-0.58,9.07c-1.55,3.83-4.44,6.16-8.4,7.14c-1.13,0.28-2.31,0.4-3.48,0.42
		c-3.08,0.06-6.16,0.02-9.24,0.02c-0.15,0-0.3,0-0.49,0c0,4.81,0,9.58,0,14.38c-2.58,0-5.11,0-7.67,0
		C296.91,42.12,296.91,28.7,296.91,15.22z M304.58,34.12c0.18,0,0.33,0,0.48,0c2.78,0,5.56,0,8.34,0c0.52,0,1.04-0.03,1.55-0.08
		c2.35-0.25,3.87-1.61,4.36-3.92c0.26-1.23,0.24-2.46,0.02-3.69c-0.33-1.82-1.32-3.12-3.12-3.69c-0.67-0.21-1.38-0.35-2.08-0.36
		c-3.07-0.04-6.13-0.03-9.2-0.03c-0.12,0-0.23,0.02-0.36,0.03C304.58,26.29,304.58,30.17,304.58,34.12z"/>
	<path d="M100.07,15.23c2.73,0,5.41,0,8.16,0c-0.24,0.75-0.48,1.48-0.72,2.21c-1.81,5.55-3.63,11.1-5.44,16.65
		c-2.28,6.98-4.57,13.97-6.84,20.96c-0.13,0.4-0.29,0.54-0.72,0.53c-2.45-0.03-4.91-0.02-7.36-0.01c-0.28,0-0.4-0.08-0.49-0.35
		c-2.19-6.69-4.38-13.37-6.58-20.06c-1.62-4.94-3.25-9.88-4.87-14.82c-0.56-1.69-1.11-3.39-1.67-5.11c2.72,0,5.42,0,8.16,0
		c3.06,10.29,6.12,20.6,9.22,31.03C93.99,35.86,97.03,25.56,100.07,15.23z"/>
	<path d="M386.93,55.54c-2.61,0-5.15,0-7.73,0c0-0.18,0-0.34,0-0.5c0-4.84,0-9.68-0.01-14.53c0-0.25-0.07-0.52-0.18-0.73
		c-4.37-8.05-8.76-16.1-13.14-24.16c-0.06-0.12-0.12-0.24-0.2-0.41c0.2,0,0.34,0,0.48,0c2.56,0,5.13,0.01,7.69-0.01
		c0.39,0,0.57,0.13,0.73,0.46c1.33,2.68,2.69,5.35,4.04,8.03c1.42,2.81,2.84,5.62,4.25,8.42c0.04,0.08,0.09,0.17,0.17,0.31
		c0.29-0.57,0.57-1.1,0.84-1.63c2.59-5.09,5.17-10.17,7.75-15.26c0.1-0.19,0.17-0.34,0.44-0.34c2.74,0.01,5.48,0.01,8.22,0.01
		c0.04,0,0.08,0.01,0.17,0.03c-0.09,0.17-0.16,0.32-0.25,0.47c-4.33,7.96-8.66,15.91-12.99,23.86c-0.19,0.36-0.29,0.71-0.29,1.12
		c0.01,4.76,0.01,9.52,0.01,14.28C386.93,55.16,386.93,55.34,386.93,55.54z"/>
	<path d="M120.02,55.55c-2.55,0-5.08,0-7.63,0c0-13.44,0-26.86,0-40.31c2.54,0,5.07,0,7.63,0
		C120.02,28.67,120.02,42.09,120.02,55.55z"/>
	<path d="M164.44,47.39c2.74,0,5.46,0,8.2,0c0,2.71,0,5.42,0,8.15c-2.73,0-5.45,0-8.2,0C164.44,52.84,164.44,50.13,164.44,47.39z"/>
</g>
</svg>
